<svg xmlns="http://www.w3.org/2000/svg" xml:space="preserve" width="101.785mm" height="125.716mm" version="1.1" style="shape-rendering:geometricPrecision; text-rendering:geometricPrecision; image-rendering:optimizeQuality; fill-rule:evenodd; clip-rule:evenodd"
viewBox="0 0 9420.8 11635.76">
   <path fill="#3EC12E" d="M1694.6 1597.83l2530.49 18.06c-298.71,-10.22 -275.88,-149.13 -828.09,-157.44 29.38,-20.44 7.71,-13.22 59.68,-26.76 192.08,-50.06 1043.48,16.51 1204.93,41.02 981.27,148.92 2047.99,659.62 2691.6,1302.35 795.56,794.49 1674.24,2094.51 1401.57,3836.22 -169.19,1080.73 -630.2,1852.6 -1406.71,2560.72 -212.37,193.65 -514.82,378.53 -798.03,548.44 -1452.38,871.34 -3153.42,489.2 -4654.85,515.06 33.03,86.36 339.08,300.25 447.12,366.54 516.79,317.1 1548.06,381.42 2161.15,327.42 1066.14,-93.9 1776.51,-319.48 2570.8,-781.65 563.71,-328.02 900.6,-705.88 1326.27,-1170.74 130.93,-142.98 229.07,-312.28 343.3,-490.87 967.11,-1511.94 885.13,-3674.55 -163.47,-5199.16 -302.91,-440.42 -387.43,-539.94 -766.08,-900.22 -147.39,-140.25 -279.7,-258.87 -447.6,-384.33 -164.7,-123.07 -326.79,-227.96 -513.82,-343.86 -477.79,-296.11 -1207.74,-588.96 -1795.12,-698.78 -973.81,-182.08 -3009.88,-103.38 -3363.14,637.98z"/>
   <path fill="#3EC12E" d="M3447.22 9518.11c1008.2,-33.84 2021.49,-277.8 2780.28,-903.14 208.71,-172.02 294.62,-256.27 468.26,-437.53 89.03,-92.94 132.02,-127.6 220.41,-245.41 263.94,-351.82 534.66,-736.94 680.99,-1155.95 40.22,-115.17 44.28,-282.75 93.56,-379.18 22.88,1044.6 -779.47,2028.72 -1336.07,2394.32 -686.78,451.11 -1175.74,670.5 -2024.59,764.16 -196.09,21.64 -736.82,29.78 -882.84,-37.26zm-2048.43 -7612.37l-7.88 524.94c234.56,57.86 1895.31,22.22 2283.46,26.7 790.07,9.13 1298.86,169.28 1882.74,471.62 1039.16,538.1 1861.73,1674.41 1811.94,2888.82 -34.25,835.51 -333.48,1432.89 -806.64,1955.74 -116.84,129.12 -107.89,166.69 -352.62,382.13 -1377.34,1212.53 -2888.23,1066.57 -4799.3,1078.01l4.37 620.05c437.21,24.37 880.77,-2.99 1306.49,24.87 433.37,28.35 808.44,98.31 1252.07,62.73 954.45,-76.57 1369.54,-239.86 2102.76,-595.48 546.91,-265.27 1068.56,-770.74 1411.12,-1258.89 393.71,-561.05 581.54,-1268.07 552.12,-2147.76 -74.74,-2235.14 -1840.07,-3864.15 -4020.52,-4019.8 -428.9,-30.62 -2143.84,-30.31 -2620.1,-13.68z"/>
   <path fill="#3EC12E" d="M11.78 4421.01c0.93,763.46 -58.23,3512.49 80.28,4099.72 197.7,838.21 407.2,1235.76 982.75,1880.32 505.3,565.87 989.77,854.31 1753.05,1086.59 129.25,39.34 231.7,71.53 375.38,92.59l311.67 53.45c22.79,1.79 4.09,3.28 36.12,0.63 59.61,-4.91 8.59,10.58 47.24,-13.61 -35.71,-89.22 -58.92,-36.61 -298.41,-89.72 -1510.65,-335.06 -2654.15,-1961.21 -2654.18,-3583.59l-5.62 -3061.09c-3.16,-1209.51 297.58,-1463.88 292.48,-1737.35l-3.16 -888.23c-183.53,296.48 -406.52,739.18 -517.89,1122.75 -106.01,365.14 -208.05,795.59 -243.42,1180.52 -5.96,64.88 -11.71,131.86 -44.57,176.32 -96.93,-148.48 -41.65,-746.71 -24.8,-955.92 66.84,-829.78 419.87,-1534.02 939.08,-2146.85 575.71,-679.5 1455.39,-1233.93 2563.31,-1547.92 -25.26,-137.9 -27.48,-88.43 -331.83,-37.35 -536.28,90.01 -688.14,145.44 -1175.79,367.53 -856.03,389.85 -1581.9,1292.75 -1880.91,2177.88 -209.34,619.68 -201.64,1096.35 -200.77,1823.32z"/>
   <path fill="#3EC12E" d="M1392.93 3661.86c3.7,1653.42 15.27,3427.24 -7.5,5081.73l729.96 -10.79 2.76 -5745.3c-163.11,-46.76 -522.78,-2.61 -716.98,-7.17l-8.25 681.54z"/>
   <path fill="#3EC12E" d="M2503.02 8728.07l658.57 6.15 -9.97 -5743.33 -651.38 -7.77c56.64,906.77 13.94,1940.47 9.48,2858.24 -4.66,956.41 20.45,1933.84 -6.7,2886.71z"/>
</svg>
